PathFileType	4	(X/Y/Z)	C:\Users\86182\Documents\cortex\Trimmed_M1_H10.trc
DataRate	CameraRate	NumFrames	NumMarkers	Units	OrigDataRate	OrigDataStartFrame	OrigNumFrames
100.00	100.00	       113	2	mm	100.00	191	       951
Frame#	Time	gripper			box			
		X1	Y1	Z1	X2	Y2	Z2	

191	1.900	224.12225	204.30493	217.47708	230.69966	203.29210	71.70544	
192	1.910	224.13417	204.30518	217.90033	230.81436	203.29358	71.98392	
193	1.920	224.14172	204.30411	218.32072	230.91618	203.29459	72.27758	
194	1.930	224.14546	204.30368	218.74072	230.99620	203.29443	72.59910	
195	1.940	224.14377	204.30574	219.16486	231.05132	203.29314	72.95448	
196	1.950	224.13516	204.31116	219.59715	231.08360	203.29262	73.33956	
197	1.960	224.12074	204.31973	220.03867	231.09831	203.29503	73.74332	
198	1.970	224.10178	204.33105	220.48772	231.10063	203.30032	74.15687	
199	1.980	224.07632	204.34529	220.94235	231.09534	203.30742	74.57793	
200	1.990	224.04076	204.36282	221.40219	231.08939	203.31624	75.00655	
201	2.000	223.99440	204.38286	221.86700	231.08940	203.32721	75.44135	
202	2.010	223.94199	204.40329	222.33383	231.09520	203.33955	75.88062	
203	2.020	223.89137	204.42172	222.79713	231.10042	203.35172	76.32162	
204	2.030	223.84703	204.43651	223.25278	231.10051	203.36320	76.75880	
205	2.040	223.80734	204.44737	223.69960	231.09720	203.37410	77.18676	
206	2.050	223.77145	204.45522	224.13699	231.09601	203.38313	77.60474	
207	2.060	223.74422	204.46078	224.56401	231.10210	203.38841	78.01507	
208	2.070	223.73038	204.46375	224.98167	231.11580	203.38980	78.41836	
209	2.080	223.72733	204.46432	225.39427	231.13023	203.38881	78.81383	
210	2.090	223.72711	204.46465	225.80722	231.13525	203.38670	79.20359	
211	2.100	223.72520	204.46707	226.22397	231.12653	203.38394	79.59320	
212	2.110	223.72545	204.47198	226.64429	231.10960	203.38164	79.98810	
213	2.120	223.73566	204.47847	227.06604	231.09343	203.38217	80.39163	
214	2.130	223.75887	204.48636	227.48979	231.08237	203.38780	80.80521	
215	2.140	223.78917	204.49654	227.92056	231.07251	203.40033	81.22874	
216	2.150	223.81628	204.50951	228.36310	231.05240	203.42154	81.66094	
217	2.160	223.83452	204.52466	228.81715	231.00966	203.45267	82.09935	
218	2.170	223.84651	204.54071	229.27875	230.94017	203.49277	82.54123	
219	2.180	223.85826	204.55690	229.74438	230.85246	203.53819	82.98466	
220	2.190	223.87141	204.57333	230.21254				
221	2.200	223.88130	204.59033	230.68237	231.47678	203.49873	83.91278	
222	2.210	223.88281	204.60757	231.15167	231.46313	203.52957	84.35033	
223	2.220	223.87692	204.62381	231.61627	231.44742	203.55751	84.78855	
224	2.230	223.86873	204.63779	232.07303	231.43268	203.58096	85.22601	
225	2.240	223.86024	204.64911	232.52216	231.42422	203.59937	85.65935	
226	2.250	223.84814	204.65787	232.96457	231.42300	203.61192	86.08589	
227	2.260	223.82907	204.66422	233.39890	231.42467	203.61790	86.50539	
228	2.270	223.80589	204.66846	233.82364	231.42328	203.61806	86.91967	
229	2.280	223.78728	204.67151	234.24020	231.41519	203.61430	87.33209	
230	2.290	223.78198	204.67473	234.65192	231.40186	203.60825	87.74653	
231	2.300	223.79404	204.67867	235.06180	231.38971	203.60106	88.16564	
232	2.310	223.82072	204.68282	235.47260	231.38690	203.59422	88.58833	
233	2.320	223.85448	204.68623	235.88722	231.39804	203.58920	89.01037	
234	2.330	223.88852	204.68860	236.30807	231.42017	203.58669	89.43013	
235	2.340	223.92046	204.69028	236.73688	231.44577	203.58675	89.85161	
236	2.350	223.95084	204.69202	237.17441	231.46950	203.58908	90.28076	
237	2.360	223.98032	204.69469	237.61893	231.48869	203.59248	90.72112	
238	2.370	224.00830	204.69925	238.06636	231.49976	203.59381	91.17296	
239	2.380	224.03362	204.70587	238.51384	231.49727	203.58896	91.63492	
240	2.390	224.05652	204.71347	238.96123	231.47615	203.57530	92.10583	
241	2.400	224.08005	204.72038	239.40756	231.43462	203.55249	92.58445	
242	2.410	224.10675	204.72534	239.84929	231.37651	203.52170	93.06781	
243	2.420	224.13179	204.72765	240.28375	231.31090	203.48532	93.54973	
244	2.430	224.14436	204.72726	240.71126	231.24661	203.44714	94.02238	
245	2.440	224.13760	204.72484	241.13414	231.18393	203.41159	94.48219	
246	2.450	224.11330	204.72058	241.55612	231.11259	203.38203	94.93357	
247	2.460	224.07744	204.71268	241.98099	231.01924	203.35910	95.38587	
248	2.470	224.03415	204.69888	242.40988	230.89603	203.34058	95.84689	
249	2.480	223.98302	204.67966	242.84193	230.74590	203.32300	96.31744	
250	2.490	223.92232	204.65840	243.27754	230.58455	203.30411	96.79083	
251	2.500	223.85579	204.63831	243.71779	230.43327	203.28442	97.25961	
252	2.510	223.79482	204.62029	244.16135	230.30582	203.26709	97.72269	
253	2.520	223.75159	204.60367	244.60590	230.20410	203.25568	98.18444	
254	2.530	223.72884	204.58809	245.05194	230.12576	203.25201	98.64836	
255	2.540	223.71753	204.57445	245.50232	230.07018	203.25587	99.11387	
256	2.550	223.70618	204.56403	245.95869	230.03653	203.26585	99.57835	
257	2.560	223.69228	204.55701	246.41998	230.02066	203.28047	100.04036	
258	2.570	223.68282	204.55292	246.88246	230.01431	203.29918	100.50099	
259	2.580	223.68323	204.55147	247.34143	230.00818	203.32214	100.96324	
260	2.590	223.68846	204.55222	247.79514	229.99693	203.34836	101.42908	
261	2.600	223.68782	204.55444	248.24611	229.98164	203.37497	101.89577	
262	2.610	223.67632	204.55754	248.69678	229.96661	203.39908	102.35741	
263	2.620	223.65796	204.56046	249.14638	229.95290	203.41975	102.81143	
264	2.630	223.63893	204.56183	249.59293	229.93504	203.43744	103.26078	
265	2.640	223.62065	204.56119	250.03540	229.90604	203.45247	103.70869	
266	2.650	223.59874	204.55890	250.47414	229.86478	203.46461	104.15355	
267	2.660	223.56812	204.55511	250.91060	229.81635	203.47302	104.59094	
268	2.670	223.52916	204.54929	251.34619	229.76613	203.47696	105.01923	
269	2.680	223.48575	204.54047	251.78136	229.71677	203.47728	105.44117	
270	2.690	223.43901	204.52837	252.21683	229.66978	203.47697	105.86159	
271	2.700	223.38843	204.51468	252.65489	229.62555	203.47923	106.28602	
272	2.710	223.33751	204.50270	253.09731	229.58046	203.48529	106.71919	
273	2.720	223.29312	204.49518	253.54292	229.52925	203.49495	107.16219	
274	2.730	223.25798	204.49265	253.98990	229.47083	203.50850	107.61293	
275	2.740	223.22711	204.49506	254.43903	229.40753	203.52686	108.07124	
276	2.750	223.19241	204.50317	254.89325	229.33977	203.54993	108.53973	
277	2.760	223.14844	204.51711	255.35474	229.26883	203.57600	109.01763	
278	2.770	223.09453	204.53535	255.82324	229.20322	203.60286	109.49738	
279	2.780	223.03450	204.55632	256.29602	229.15453	203.62854	109.97098	
280	2.790	222.97479	204.57896	256.76868	229.12859	203.65149	110.43622	
281	2.800	222.92140	204.60214	257.23715	229.12346	203.67096	110.89424	
282	2.810	222.87717	204.62489	257.69946	229.13187	203.68726	111.34576	
283	2.820	222.83966	204.64687	258.15546	229.14381	203.70087	111.79056	
284	2.830	222.80237	204.66759	258.60580	229.15146	203.71182	112.22690	
285	2.840	222.76064	204.68597	259.05069	229.15439	203.72026	112.65145	
286	2.850	222.71684	204.70091	259.48886	229.15887	203.72624	113.06265	
287	2.860	222.67780	204.71167	259.91861	229.17062	203.72928	113.46397	
288	2.870	222.64723	204.71815	260.34033	229.18837	203.72908	113.86143	
289	2.880	222.62273	204.72168	260.75745	229.20486	203.72639	114.25852	
290	2.890	222.59987	204.72446	261.17389	229.21346	203.72256	114.65593	
291	2.900	222.57819	204.72774	261.59192	229.21404	203.71849	115.05475	
292	2.910	222.56261	204.73129	262.01224	229.21315	203.71472	115.45626	
293	2.920	222.55777	204.73479	262.43594	229.21764	203.71173	115.86069	
294	2.930	222.56219	204.73866	262.86496	229.22827	203.70969	116.26926	
295	2.940	222.57101	204.74348	263.30032	229.24107	203.70853	116.68522	
296	2.950	222.58340	204.74886	263.74066	229.25366	203.70906	117.11057	
297	2.960	222.60283	204.75340	264.18353	229.26804	203.71251	117.54382	
298	2.970	222.63039	204.75648	264.62775	229.28766	203.71837	117.98276	
299	2.980	222.66118	204.75903	265.07410	229.31294	203.72450	118.42813	
300	2.990	222.68936	204.76218	265.52301	229.33934	203.72993	118.88167	
301	3.000	222.71481	204.76620	265.97290	229.36021	203.73561	119.34167	
302	3.010	222.74229	204.77127	266.42093	229.37231	203.74242	119.80330	
303	3.020	222.77396	204.77806	266.86566	229.37985	203.75014	120.26143	
